<svg width="800" height="300" viewBox="0 0 800 300" xmlns="http://www.w3.org/2000/svg">
  <!-- Windows Keyboard Layout -->
  <rect width="800" height="300" fill="#f0f0f0" stroke="#ccc" stroke-width="2" rx="10"/>
  
  <!-- Function Row -->
  <rect x="20" y="20" width="40" height="25" fill="#fff" stroke="#999" rx="3"/>
  <text x="40" y="35" text-anchor="middle" font-size="10" fill="#333">Esc</text>
  
  <rect x="70" y="20" width="40" height="25" fill="#fff" stroke="#999" rx="3"/>
  <text x="90" y="35" text-anchor="middle" font-size="10" fill="#333">F1</text>
  
  <rect x="120" y="20" width="40" height="25" fill="#fff" stroke="#999" rx="3"/>
  <text x="140" y="35" text-anchor="middle" font-size="10" fill="#333">F2</text>
  
  <rect x="170" y="20" width="40" height="25" fill="#fff" stroke="#999" rx="3"/>
  <text x="190" y="35" text-anchor="middle" font-size="10" fill="#333">F3</text>
  
  <rect x="220" y="20" width="40" height="25" fill="#fff" stroke="#999" rx="3"/>
  <text x="240" y="35" text-anchor="middle" font-size="10" fill="#333">F4</text>
  
  <rect x="270" y="20" width="40" height="25" fill="#fff" stroke="#999" rx="3"/>
  <text x="290" y="35" text-anchor="middle" font-size="10" fill="#333">F5</text>
  
  <rect x="320" y="20" width="40" height="25" fill="#fff" stroke="#999" rx="3"/>
  <text x="340" y="35" text-anchor="middle" font-size="10" fill="#333">F6</text>
  
  <rect x="370" y="20" width="40" height="25" fill="#fff" stroke="#999" rx="3"/>
  <text x="390" y="35" text-anchor="middle" font-size="10" fill="#333">F7</text>
  
  <rect x="420" y="20" width="40" height="25" fill="#fff" stroke="#999" rx="3"/>
  <text x="440" y="35" text-anchor="middle" font-size="10" fill="#333">F8</text>
  
  <rect x="470" y="20" width="40" height="25" fill="#fff" stroke="#999" rx="3"/>
  <text x="490" y="35" text-anchor="middle" font-size="10" fill="#333">F9</text>
  
  <rect x="520" y="20" width="40" height="25" fill="#fff" stroke="#999" rx="3"/>
  <text x="540" y="35" text-anchor="middle" font-size="10" fill="#333">F10</text>
  
  <rect x="570" y="20" width="40" height="25" fill="#fff" stroke="#999" rx="3"/>
  <text x="590" y="35" text-anchor="middle" font-size="10" fill="#333">F11</text>
  
  <rect x="620" y="20" width="40" height="25" fill="#fff" stroke="#999" rx="3"/>
  <text x="640" y="35" text-anchor="middle" font-size="10" fill="#333">F12</text>
  
  <!-- Number Row -->
  <rect x="20" y="55" width="40" height="25" fill="#fff" stroke="#999" rx="3"/>
  <text x="40" y="70" text-anchor="middle" font-size="10" fill="#333">`</text>
  
  <rect x="70" y="55" width="40" height="25" fill="#fff" stroke="#999" rx="3"/>
  <text x="90" y="70" text-anchor="middle" font-size="10" fill="#333">1</text>
  
  <rect x="120" y="55" width="40" height="25" fill="#fff" stroke="#999" rx="3"/>
  <text x="140" y="70" text-anchor="middle" font-size="10" fill="#333">2</text>
  
  <rect x="170" y="55" width="40" height="25" fill="#fff" stroke="#999" rx="3"/>
  <text x="190" y="70" text-anchor="middle" font-size="10" fill="#333">3</text>
  
  <rect x="220" y="55" width="40" height="25" fill="#fff" stroke="#999" rx="3"/>
  <text x="240" y="70" text-anchor="middle" font-size="10" fill="#333">4</text>
  
  <rect x="270" y="55" width="40" height="25" fill="#fff" stroke="#999" rx="3"/>
  <text x="290" y="70" text-anchor="middle" font-size="10" fill="#333">5</text>
  
  <rect x="320" y="55" width="40" height="25" fill="#fff" stroke="#999" rx="3"/>
  <text x="340" y="70" text-anchor="middle" font-size="10" fill="#333">6</text>
  
  <rect x="370" y="55" width="40" height="25" fill="#fff" stroke="#999" rx="3"/>
  <text x="390" y="70" text-anchor="middle" font-size="10" fill="#333">7</text>
  
  <rect x="420" y="55" width="40" height="25" fill="#fff" stroke="#999" rx="3"/>
  <text x="440" y="70" text-anchor="middle" font-size="10" fill="#333">8</text>
  
  <rect x="470" y="55" width="40" height="25" fill="#fff" stroke="#999" rx="3"/>
  <text x="490" y="70" text-anchor="middle" font-size="10" fill="#333">9</text>
  
  <rect x="520" y="55" width="40" height="25" fill="#fff" stroke="#999" rx="3"/>
  <text x="540" y="70" text-anchor="middle" font-size="10" fill="#333">0</text>
  
  <rect x="570" y="55" width="40" height="25" fill="#fff" stroke="#999" rx="3"/>
  <text x="590" y="70" text-anchor="middle" font-size="10" fill="#333">-</text>
  
  <rect x="620" y="55" width="40" height="25" fill="#fff" stroke="#999" rx="3"/>
  <text x="640" y="70" text-anchor="middle" font-size="10" fill="#333">=</text>
  
  <rect x="670" y="55" width="60" height="25" fill="#fff" stroke="#999" rx="3"/>
  <text x="700" y="70" text-anchor="middle" font-size="10" fill="#333">Backspace</text>
  
  <!-- First Row -->
  <rect x="20" y="90" width="60" height="25" fill="#fff" stroke="#999" rx="3"/>
  <text x="50" y="105" text-anchor="middle" font-size="10" fill="#333">Tab</text>
  
  <rect x="90" y="90" width="40" height="25" fill="#fff" stroke="#999" rx="3"/>
  <text x="110" y="105" text-anchor="middle" font-size="10" fill="#333">Q</text>
  
  <rect x="140" y="90" width="40" height="25" fill="#fff" stroke="#999" rx="3"/>
  <text x="160" y="105" text-anchor="middle" font-size="10" fill="#333">W</text>
  
  <rect x="190" y="90" width="40" height="25" fill="#fff" stroke="#999" rx="3"/>
  <text x="210" y="105" text-anchor="middle" font-size="10" fill="#333">E</text>
  
  <rect x="240" y="90" width="40" height="25" fill="#fff" stroke="#999" rx="3"/>
  <text x="260" y="105" text-anchor="middle" font-size="10" fill="#333">R</text>
  
  <rect x="290" y="90" width="40" height="25" fill="#fff" stroke="#999" rx="3"/>
  <text x="310" y="105" text-anchor="middle" font-size="10" fill="#333">T</text>
  
  <rect x="340" y="90" width="40" height="25" fill="#fff" stroke="#999" rx="3"/>
  <text x="360" y="105" text-anchor="middle" font-size="10" fill="#333">Y</text>
  
  <rect x="390" y="90" width="40" height="25" fill="#fff" stroke="#999" rx="3"/>
  <text x="410" y="105" text-anchor="middle" font-size="10" fill="#333">U</text>
  
  <rect x="440" y="90" width="40" height="25" fill="#fff" stroke="#999" rx="3"/>
  <text x="460" y="105" text-anchor="middle" font-size="10" fill="#333">I</text>
  
  <rect x="490" y="90" width="40" height="25" fill="#fff" stroke="#999" rx="3"/>
  <text x="510" y="105" text-anchor="middle" font-size="10" fill="#333">O</text>
  
  <rect x="540" y="90" width="40" height="25" fill="#fff" stroke="#999" rx="3"/>
  <text x="560" y="105" text-anchor="middle" font-size="10" fill="#333">P</text>
  
  <rect x="590" y="90" width="40" height="25" fill="#fff" stroke="#999" rx="3"/>
  <text x="610" y="105" text-anchor="middle" font-size="10" fill="#333">[</text>
  
  <rect x="640" y="90" width="40" height="25" fill="#fff" stroke="#999" rx="3"/>
  <text x="660" y="105" text-anchor="middle" font-size="10" fill="#333">]</text>
  
  <rect x="690" y="90" width="50" height="25" fill="#fff" stroke="#999" rx="3"/>
  <text x="715" y="105" text-anchor="middle" font-size="10" fill="#333">\</text>
  
  <!-- Second Row -->
  <rect x="20" y="125" width="50" height="25" fill="#fff" stroke="#999" rx="3"/>
  <text x="45" y="140" text-anchor="middle" font-size="10" fill="#333">Caps</text>
  
  <rect x="80" y="125" width="40" height="25" fill="#fff" stroke="#999" rx="3"/>
  <text x="100" y="140" text-anchor="middle" font-size="10" fill="#333">A</text>
  
  <rect x="130" y="125" width="40" height="25" fill="#fff" stroke="#999" rx="3"/>
  <text x="150" y="140" text-anchor="middle" font-size="10" fill="#333">S</text>
  
  <rect x="180" y="125" width="40" height="25" fill="#fff" stroke="#999" rx="3"/>
  <text x="200" y="140" text-anchor="middle" font-size="10" fill="#333">D</text>
  
  <rect x="230" y="125" width="40" height="25" fill="#fff" stroke="#999" rx="3"/>
  <text x="250" y="140" text-anchor="middle" font-size="10" fill="#333">F</text>
  
  <rect x="280" y="125" width="40" height="25" fill="#fff" stroke="#999" rx="3"/>
  <text x="300" y="140" text-anchor="middle" font-size="10" fill="#333">G</text>
  
  <rect x="330" y="125" width="40" height="25" fill="#fff" stroke="#999" rx="3"/>
  <text x="350" y="140" text-anchor="middle" font-size="10" fill="#333">H</text>
  
  <rect x="380" y="125" width="40" height="25" fill="#fff" stroke="#999" rx="3"/>
  <text x="400" y="140" text-anchor="middle" font-size="10" fill="#333">J</text>
  
  <rect x="430" y="125" width="40" height="25" fill="#fff" stroke="#999" rx="3"/>
  <text x="450" y="140" text-anchor="middle" font-size="10" fill="#333">K</text>
  
  <rect x="480" y="125" width="40" height="25" fill="#fff" stroke="#999" rx="3"/>
  <text x="500" y="140" text-anchor="middle" font-size="10" fill="#333">L</text>
  
  <rect x="530" y="125" width="40" height="25" fill="#fff" stroke="#999" rx="3"/>
  <text x="550" y="140" text-anchor="middle" font-size="10" fill="#333">;</text>
  
  <rect x="580" y="125" width="40" height="25" fill="#fff" stroke="#999" rx="3"/>
  <text x="600" y="140" text-anchor="middle" font-size="10" fill="#333">'</text>
  
  <rect x="630" y="125" width="60" height="25" fill="#fff" stroke="#999" rx="3"/>
  <text x="660" y="140" text-anchor="middle" font-size="10" fill="#333">Enter</text>
  
  <!-- Third Row -->
  <rect x="20" y="160" width="60" height="25" fill="#fff" stroke="#999" rx="3"/>
  <text x="50" y="175" text-anchor="middle" font-size="10" fill="#333">Shift</text>
  
  <rect x="90" y="160" width="40" height="25" fill="#fff" stroke="#999" rx="3"/>
  <text x="110" y="175" text-anchor="middle" font-size="10" fill="#333">Z</text>
  
  <rect x="140" y="160" width="40" height="25" fill="#fff" stroke="#999" rx="3"/>
  <text x="160" y="175" text-anchor="middle" font-size="10" fill="#333">X</text>
  
  <rect x="190" y="160" width="40" height="25" fill="#fff" stroke="#999" rx="3"/>
  <text x="210" y="175" text-anchor="middle" font-size="10" fill="#333">C</text>
  
  <rect x="240" y="160" width="40" height="25" fill="#fff" stroke="#999" rx="3"/>
  <text x="260" y="175" text-anchor="middle" font-size="10" fill="#333">V</text>
  
  <rect x="290" y="160" width="40" height="25" fill="#fff" stroke="#999" rx="3"/>
  <text x="310" y="175" text-anchor="middle" font-size="10" fill="#333">B</text>
  
  <rect x="340" y="160" width="40" height="25" fill="#fff" stroke="#999" rx="3"/>
  <text x="360" y="175" text-anchor="middle" font-size="10" fill="#333">N</text>
  
  <rect x="390" y="160" width="40" height="25" fill="#fff" stroke="#999" rx="3"/>
  <text x="410" y="175" text-anchor="middle" font-size="10" fill="#333">M</text>
  
  <rect x="440" y="160" width="40" height="25" fill="#fff" stroke="#999" rx="3"/>
  <text x="460" y="175" text-anchor="middle" font-size="10" fill="#333">,</text>
  
  <rect x="490" y="160" width="40" height="25" fill="#fff" stroke="#999" rx="3"/>
  <text x="510" y="175" text-anchor="middle" font-size="10" fill="#333">.</text>
  
  <rect x="540" y="160" width="40" height="25" fill="#fff" stroke="#999" rx="3"/>
  <text x="560" y="175" text-anchor="middle" font-size="10" fill="#333">/</text>
  
  <rect x="590" y="160" width="100" height="25" fill="#fff" stroke="#999" rx="3"/>
  <text x="640" y="175" text-anchor="middle" font-size="10" fill="#333">Shift</text>
  
  <!-- Bottom Row -->
  <rect x="20" y="195" width="50" height="25" fill="#fff" stroke="#999" rx="3"/>
  <text x="45" y="210" text-anchor="middle" font-size="10" fill="#333">Ctrl</text>
  
  <rect x="80" y="195" width="50" height="25" fill="#fff" stroke="#999" rx="3"/>
  <text x="105" y="210" text-anchor="middle" font-size="10" fill="#333">Win</text>
  
  <rect x="140" y="195" width="50" height="25" fill="#fff" stroke="#999" rx="3"/>
  <text x="165" y="210" text-anchor="middle" font-size="10" fill="#333">Alt</text>
  
  <rect x="200" y="195" width="200" height="25" fill="#fff" stroke="#999" rx="3"/>
  <text x="300" y="210" text-anchor="middle" font-size="10" fill="#333">Space</text>
  
  <rect x="410" y="195" width="50" height="25" fill="#fff" stroke="#999" rx="3"/>
  <text x="435" y="210" text-anchor="middle" font-size="10" fill="#333">Alt</text>
  
  <rect x="470" y="195" width="50" height="25" fill="#fff" stroke="#999" rx="3"/>
  <text x="495" y="210" text-anchor="middle" font-size="10" fill="#333">Win</text>
  
  <rect x="530" y="195" width="50" height="25" fill="#fff" stroke="#999" rx="3"/>
  <text x="555" y="210" text-anchor="middle" font-size="10" fill="#333">Menu</text>
  
  <rect x="590" y="195" width="50" height="25" fill="#fff" stroke="#999" rx="3"/>
  <text x="615" y="210" text-anchor="middle" font-size="10" fill="#333">Ctrl</text>
  
  <!-- Arrow Keys -->
  <rect x="650" y="125" width="40" height="25" fill="#fff" stroke="#999" rx="3"/>
  <text x="670" y="140" text-anchor="middle" font-size="10" fill="#333">↑</text>
  
  <rect x="650" y="160" width="40" height="25" fill="#fff" stroke="#999" rx="3"/>
  <text x="670" y="175" text-anchor="middle" font-size="10" fill="#333">↓</text>
  
  <rect x="610" y="160" width="40" height="25" fill="#fff" stroke="#999" rx="3"/>
  <text x="630" y="175" text-anchor="middle" font-size="10" fill="#333">←</text>
  
  <rect x="690" y="160" width="40" height="25" fill="#fff" stroke="#999" rx="3"/>
  <text x="710" y="175" text-anchor="middle" font-size="10" fill="#333">→</text>
</svg>
